<svg fill="none" height="130" viewBox="0 0 118 130" width="118" xmlns="http://www.w3.org/2000/svg"><path d="m78.2846 61.75c0 3.965-3.0343 7.215-6.8777 7.215-3.776 0-6.8778-3.25-6.8778-7.215s3.0343-7.215 6.8778-7.215c3.8434 0 6.8777 3.25 6.8777 7.215zm-31.4892-7.215c-3.8434 0-6.8777 3.25-6.8777 7.215s3.1017 7.215 6.8777 7.215c3.8435 0 6.8777-3.25 6.8777-7.215.0675-3.965-3.0342-7.215-6.8777-7.215zm71.2046-41.145v116.61c-16.987-14.471-11.555-9.681-31.2869-27.365l3.5738 12.025h-76.464c-7.61947 0-13.8229-5.98-13.8229-13.39v-87.88c0-7.41 6.20343-13.39 13.8229-13.39h90.3541c7.62 0 13.823 5.98 13.823 13.39zm-19.2171 61.62c0-20.93-9.7098-37.895-9.7098-37.895-9.7097-7.02-18.9474-6.825-18.9474-6.825l-.944 1.04c11.4629 3.38 16.7897 8.255 16.7897 8.255-16.0172-8.4624-34.8321-8.464-50.3691-1.885-2.4949 1.105-3.9783 1.885-3.9783 1.885s5.5966-5.135 17.7337-8.515l-.6743-.78s-9.2377-.195-18.9474 6.825c0 0-9.7097 16.965-9.7097 37.895 0 0 5.664 9.425 20.5657 9.88 0 0 2.4949-2.925 4.5177-5.395-8.5634-2.47-11.8-7.67-11.8-7.67.992.6693 2.6276 1.5369 2.7646 1.625 11.3812 6.144 27.5477 8.157 42.0754 2.275 2.36-.845 4.9897-2.08 7.7543-3.835 0 0-3.3714 5.33-12.2046 7.735 2.0229 2.47 4.4503 5.265 4.4503 5.265 14.9017-.455 20.6332-9.88 20.6332-9.88z" fill="#fff"/></svg>