<?xml version="1.0" encoding="utf-8"?>
<!-- Generator: Adobe Illustrator 25.2.0, SVG Export Plug-In . SVG Version: 6.00 Build 0)  -->
<svg version="1.1" id="Layer_1" xmlns="http://www.w3.org/2000/svg" xmlns:xlink="http://www.w3.org/1999/xlink" x="0px" y="0px"
	 viewBox="0 0 118 130" style="enable-background:new 0 0 118 130;" xml:space="preserve">
<style type="text/css">
	.st0{fill:#FFFFFF;}
	.st1{fill:#231F20;}
	.st2{fill:none;}
</style>
<path class="st0" d="M59,32.9c-12,0-21.8,9.8-21.8,21.8c0,12,9.8,21.8,21.8,21.8c12,0,21.8-9.8,21.8-21.8C80.8,42.7,71,32.9,59,32.9
	z M59,70.5c-8.7,0-15.8-7.1-15.8-15.8c0-8.7,7.1-15.8,15.8-15.8c8.7,0,15.8,7.1,15.8,15.8C74.8,63.4,67.7,70.5,59,70.5z"/>
<path class="st0" d="M83.8,29.9c0,1.7-1.3,3-3,3s-3-1.3-3-3c0-1.6,1.3-3,3-3S83.8,28.3,83.8,29.9z"/>
<path class="st0" d="M118,13.4C118,6,111.8,0,104.2,0H13.8C6.2,0,0,6,0,13.4v87.9c0,7.4,6.2,13.4,13.8,13.4h76.5l-3.6-12
	c19.7,17.7,14.3,12.9,31.3,27.4V13.4z M93.1,68.4c0,11.2-9.1,20.4-20.4,20.4H45.3C34.1,88.8,25,79.6,25,68.4V41
	c0-11.3,9.1-20.4,20.4-20.4h27.4c11.2,0,20.4,9.1,20.4,20.4V68.4z"/>
<path class="st1" d="M59,32.9c-12,0-21.8,9.8-21.8,21.8c0,12,9.8,21.8,21.8,21.8c12,0,21.8-9.8,21.8-21.8C80.8,42.7,71,32.9,59,32.9
	z M59,70.5c-8.7,0-15.8-7.1-15.8-15.8c0-8.7,7.1-15.8,15.8-15.8c8.7,0,15.8,7.1,15.8,15.8C74.8,63.4,67.7,70.5,59,70.5z"/>
<path class="st1" d="M83.8,29.9c0,1.7-1.3,3-3,3s-3-1.3-3-3c0-1.6,1.3-3,3-3S83.8,28.3,83.8,29.9z"/>
<path class="st0" d="M75.9,14H42.1C29,14,18.3,24.7,18.3,37.8v33.9c0,13.1,10.6,23.7,23.7,23.7h33.9c13.1,0,23.7-10.6,23.7-23.7
	V37.8C99.7,24.7,89,14,75.9,14z M93.1,68.4c0,11.2-9.1,20.4-20.4,20.4H45.3C34.1,88.8,25,79.6,25,68.4V41c0-11.3,9.1-20.4,20.4-20.4
	h27.4c11.2,0,20.4,9.1,20.4,20.4V68.4z"/>
<path class="st2" d="M72.7,20.6H45.3C34.1,20.6,25,29.8,25,41v27.4c0,11.2,9.1,20.4,20.4,20.4h27.4c11.2,0,20.4-9.1,20.4-20.4V41
	C93.1,29.8,83.9,20.6,72.7,20.6z M59,76.5c-12,0-21.8-9.8-21.8-21.8c0-12,9.8-21.8,21.8-21.8c12,0,21.8,9.8,21.8,21.8
	C80.8,66.7,71,76.5,59,76.5z M80.8,32.9c-1.7,0-3-1.3-3-3c0-1.6,1.3-3,3-3s3,1.3,3,3C83.8,31.6,82.5,32.9,80.8,32.9z"/>
<path class="st0" d="M59,32.9c-12,0-21.8,9.8-21.8,21.8c0,12,9.8,21.8,21.8,21.8c12,0,21.8-9.8,21.8-21.8C80.8,42.7,71,32.9,59,32.9
	z M59,70.5c-8.7,0-15.8-7.1-15.8-15.8c0-8.7,7.1-15.8,15.8-15.8c8.7,0,15.8,7.1,15.8,15.8C74.8,63.4,67.7,70.5,59,70.5z"/>
<path class="st0" d="M83.8,29.9c0,1.7-1.3,3-3,3s-3-1.3-3-3c0-1.6,1.3-3,3-3S83.8,28.3,83.8,29.9z"/>
<path class="st0" d="M59,32.9c-12,0-21.8,9.8-21.8,21.8c0,12,9.8,21.8,21.8,21.8c12,0,21.8-9.8,21.8-21.8C80.8,42.7,71,32.9,59,32.9
	z M59,70.5c-8.7,0-15.8-7.1-15.8-15.8c0-8.7,7.1-15.8,15.8-15.8c8.7,0,15.8,7.1,15.8,15.8C74.8,63.4,67.7,70.5,59,70.5z"/>
<path class="st2" d="M74.8,54.7c0,8.7-7.1,15.8-15.8,15.8c-8.7,0-15.8-7.1-15.8-15.8c0-8.7,7.1-15.8,15.8-15.8
	C67.7,38.9,74.8,46,74.8,54.7z"/>
<path class="st0" d="M83.8,29.9c0,1.7-1.3,3-3,3s-3-1.3-3-3c0-1.6,1.3-3,3-3S83.8,28.3,83.8,29.9z"/>
</svg>
