<svg fill="none" height="70" viewBox="0 0 254 70" width="254" xmlns="http://www.w3.org/2000/svg"><g fill="#fff"><path d="m16.3467 67.345v-47.0082h-16.34682589v47.0082z"/><path d="m190.19 67.3362v-47.0083h16.347v7.8596h9.862v16.4962h-9.862v22.6525z"/><path d="m103.373 19.4615c-13.7465 0-24.9233 11.2067-24.9233 25.0133s11.1768 25.0133 24.9233 25.0133c13.747 0 24.894-11.2067 24.894-25.0133s-11.147-25.0133-24.894-25.0133zm.21 35.5924c-5.7682 0-10.46-4.6918-10.46-10.4595s4.6918-10.4596 10.46-10.4596c5.767 0 10.459 4.6919 10.459 10.4596s-4.662 10.4595-10.459 10.4595z"/><path d="m56.2156 67.336-.0299-2.57c0-.777-.1196-19.3652-.1196-19.6939 0-4.4229-3.5861-8.009-7.9791-8.009s-7.9792 3.5861-7.9792 8.009c0 .269.0598 12.9699.0897 19.664v2.5999h-16.3169v-2.57c0-.777-.0598-19.3652-.0598-19.6939 0-13.448 10.9078-24.4156 24.326-24.4156 13.4181 0 24.3259 10.9377 24.3259 24.4156 0 .3287.0897 12.9998.1196 19.664l.0298 2.5999z"/><path d="m158.929 68.5318c-13.418 0-24.326-10.9377-24.326-24.4156 0-.3287-.09-12.9997-.12-19.664l-.029-2.5999h16.346l.03 2.57c0 .777.12 19.3652.12 19.6939 0 4.4229 3.586 8.0091 7.979 8.0091s7.979-3.5862 7.979-8.0091c0-.2689-.06-12.9698-.09-19.664v-2.5999h16.347v2.57c0 .777.06 19.3652.06 19.6939 0 13.4779-10.908 24.4156-24.296 24.4156z"/></g><g fill="#bbf555"><path d="m217.211 10.0042v7.3334h23.991c-12.384 6.7992-16.512 17.9206-16.512 26.6624h8.741c0-8.7418 6.023-19.8632 19.864-26.6624v-7.3334z"/><path d="m236.8 42.6971v1.7386h2.218v-1.7386zm8.078 1.8683c3.594 0 5.32-1.6737 5.32-4.6837 0-2.9971-1.726-4.6578-5.32-4.6578-3.607 0-5.319 1.6477-5.319 4.6578 0 3.023 1.712 4.6837 5.319 4.6837zm0-1.9591c-2.05 0-2.984-1.012-2.984-2.7246 0-1.6997.934-2.6987 2.984-2.6987s2.984 1.012 2.984 2.6987c0 1.6996-.934 2.7246-2.984 2.7246z"/></g></svg>